<?xml version="1.0" standalone="no"?>
<!DOCTYPE svg PUBLIC "-//W3C//DTD SVG 20010904//EN"
 "http://www.w3.org/TR/2001/REC-SVG-20010904/DTD/svg10.dtd">
<svg version="1.0" xmlns="http://www.w3.org/2000/svg"
 width="666.000000pt" height="375.000000pt" viewBox="0 0 666.000000 375.000000"
 preserveAspectRatio="xMidYMid meet">

<g transform="translate(0.000000,375.000000) scale(0.100000,-0.100000)"
fill="#000000" stroke="none">
<path d="M4342 3122 c-89 -32 -134 -80 -198 -212 -25 -52 -78 -159 -117 -238
-113 -229 -107 -258 116 -522 155 -183 157 -185 189 -220 13 -14 57 -65 98
-115 294 -351 459 -546 494 -582 48 -51 65 -80 65 -113 1 -57 27 -55 -546 -60
-486 -5 -531 -6 -561 -23 -89 -49 -192 -206 -192 -294 0 -44 3 -50 33 -68 31
-19 58 -20 967 -23 514 -2 959 0 988 3 60 7 89 37 77 76 -6 18 -379 475 -434
530 -17 18 -28 30 -106 124 -66 81 -112 134 -154 180 -10 11 -51 60 -92 110
-41 49 -86 103 -100 120 -51 58 -256 302 -376 446 -102 122 -124 156 -138 204
-21 72 -15 129 24 210 16 33 63 132 106 220 84 175 89 207 39 240 -40 26 -120
29 -182 7z"/>
<path d="M1737 2640 c-16 -5 -47 -24 -71 -43 -39 -32 -81 -114 -489 -930 -346
-692 -447 -903 -447 -931 0 -26 7 -44 26 -63 24 -24 30 -25 102 -20 134 9 196
57 276 217 29 58 58 115 64 128 7 12 16 30 21 40 28 58 205 412 218 437 9 17
20 38 25 48 4 9 13 26 19 38 6 12 65 129 132 261 111 222 124 242 156 255 64
27 92 9 211 -133 138 -166 161 -193 185 -218 12 -12 104 -120 205 -241 170
-203 281 -333 331 -388 36 -40 45 -50 163 -192 113 -135 201 -215 236 -215 9
0 21 -5 27 -11 5 -5 35 -13 65 -16 42 -4 65 -1 99 14 98 43 104 53 340 532
122 245 244 491 272 546 48 96 50 103 50 180 0 55 -5 90 -17 112 -23 45 -81
101 -113 109 -38 10 -91 -22 -115 -71 -12 -22 -28 -53 -36 -70 -9 -16 -19 -37
-22 -45 -6 -13 -17 -33 -51 -100 -5 -8 -71 -143 -148 -301 -77 -157 -149 -293
-160 -303 -13 -12 -36 -19 -63 -19 -40 0 -47 5 -102 64 -32 35 -140 161 -239
279 -99 118 -197 233 -218 255 -50 55 -132 151 -348 410 -213 256 -259 301
-353 350 -53 28 -83 37 -136 40 -37 3 -80 0 -95 -5z"/>
</g>
</svg>
